<svg width="291" height="66" viewBox="0 0 291 66" fill="none" xmlns="http://www.w3.org/2000/svg">
<circle cx="33" cy="33" r="33" fill="black"/>
<circle cx="33" cy="33" r="30" fill="white"/>
<path d="M25 18.5C25 34 41.2843 34 33 34C24.7157 34 18 27.0604 18 18.5C18 9.93959 24.7157 3 33 3C41.2843 3 25 3 25 18.5Z" fill="#868686"/>
<path d="M48 48.2459C48 56.3944 41.3997 63 33.2579 63C25.116 63 41.6118 63 41.6118 48.2459C41.6118 33.4918 25.116 33 33.2579 33C41.3997 33 48 40.0974 48 48.2459Z" fill="#868686"/>
<path d="M41.141 18.5C41.141 34 25.1848 34 33.3022 34C41.4196 34 48 27.0604 48 18.5C48 9.93959 41.4196 3 33.3022 3C25.1848 3 41.141 3 41.141 18.5Z" fill="black"/>
<path d="M18 47.7541C18 56.1742 24.6003 63 32.7421 63C40.884 63 24.3882 63 24.3882 47.7541C24.3882 32.5082 40.884 32 32.7421 32C24.6003 32 18 39.334 18 47.7541Z" fill="black"/>
<path d="M97.966 35.52C97.966 37.4467 97.048 39.1013 95.212 40.484C93.376 41.8667 91.2793 42.558 88.922 42.558C86.5647 42.558 84.6607 41.98 83.21 40.824C81.782 39.6453 81.068 38.4327 81.068 37.186C81.068 35.9393 81.4193 35.316 82.122 35.316C82.666 35.316 83.2327 35.588 83.822 36.132C84.4113 36.676 85.0687 37.22 85.794 37.764C86.542 38.308 87.3807 38.58 88.31 38.58C89.2393 38.58 90.2933 38.1947 91.472 37.424C92.6507 36.6533 93.24 36.0073 93.24 35.486C93.24 34.9647 92.594 34.092 91.302 32.868C90.0327 31.644 88.752 30.386 87.46 29.094C86.1907 27.7793 85.556 26.7707 85.556 26.068C85.556 25.3427 85.6807 24.5607 85.93 23.722C86.202 22.8833 86.5307 22.3053 86.916 21.988C88.14 20.7867 89.7153 19.7553 91.642 18.894C93.5913 18.01 95.3027 17.568 96.776 17.568C97.6373 17.568 98.3513 17.942 98.918 18.69C99.4847 19.4153 99.768 20.1747 99.768 20.968C99.768 21.2853 99.5073 21.546 98.986 21.75C98.4873 21.9313 97.7507 22.124 96.776 22.328C95.824 22.532 94.8493 22.8267 93.852 23.212C91.54 24.0733 90.384 24.7987 90.384 25.388C90.384 25.66 90.7807 26.1587 91.574 26.884C92.3673 27.5867 93.2287 28.3347 94.158 29.128C95.11 29.8987 95.9827 30.8847 96.776 32.086C97.5693 33.2647 97.966 34.4093 97.966 35.52ZM115.06 32.936C115.468 33.2987 115.672 33.6273 115.672 33.922C115.672 34.2167 115.536 34.8287 115.264 35.758C114.992 36.6873 114.81 37.4127 114.72 37.934C114.629 38.4327 114.55 38.8293 114.482 39.124C114.436 39.4187 114.402 39.6567 114.38 39.838C114.357 39.9967 114.312 40.2007 114.244 40.45C114.198 40.6993 114.153 40.9033 114.108 41.062C114.085 41.198 114.04 41.368 113.972 41.572C113.926 41.7533 113.87 41.9007 113.802 42.014C113.734 42.1047 113.654 42.2067 113.564 42.32C113.428 42.5013 113.201 42.592 112.884 42.592C112.566 42.592 112.17 42.2747 111.694 41.64C111.24 41.0053 110.9 40.2347 110.674 39.328C108.543 41.504 106.752 42.592 105.302 42.592C104.327 42.592 103.273 42.0593 102.14 40.994C101.006 39.906 100.44 38.8293 100.44 37.764C100.44 36.676 100.927 35.1347 101.902 33.14C102.876 31.1453 104.202 29.298 105.88 27.598C107.58 25.898 109.257 25.048 110.912 25.048C111.864 25.048 112.963 25.6033 114.21 26.714C115.456 27.8247 116.08 28.8447 116.08 29.774C116.08 30.6807 115.74 31.7347 115.06 32.936ZM105.166 38.308C106.072 38.308 107.274 37.696 108.77 36.472C110.288 35.2253 111.229 33.6613 111.592 31.78C111.614 31.508 111.807 31.3493 112.17 31.304C112.102 30.012 111.886 29.366 111.524 29.366C110.617 29.366 109.597 29.9553 108.464 31.134C107.353 32.3127 106.435 33.5707 105.71 34.908C105.007 36.2453 104.656 37.2313 104.656 37.866C104.656 38.0473 104.678 38.172 104.724 38.24C104.792 38.2853 104.939 38.308 105.166 38.308ZM130.454 25.048C131.632 25.048 132.664 25.5807 133.548 26.646C134.454 27.6887 134.908 28.8107 134.908 30.012C134.908 31.9387 134.59 33.956 133.956 36.064C133.344 38.1493 132.664 39.7587 131.916 40.892C131.19 42.0253 130.442 42.592 129.672 42.592C128.924 42.592 128.55 42.0593 128.55 40.994C128.55 40.178 128.924 38.5347 129.672 36.064C130.238 34.024 130.522 32.562 130.522 31.678C130.522 30.794 130.408 30.352 130.182 30.352C129.887 30.352 129.592 30.4993 129.298 30.794C129.026 31.0887 128.799 31.3493 128.618 31.576C128.436 31.8027 128.221 32.0973 127.972 32.46C127.745 32.8 127.541 33.1173 127.36 33.412C127.201 33.684 126.986 34.0467 126.714 34.5C126.464 34.9307 126.26 35.2933 126.102 35.588C125.943 35.86 125.739 36.2227 125.49 36.676C123.382 40.62 121.727 42.592 120.526 42.592C120.05 42.592 119.449 42.184 118.724 41.368C117.998 40.5293 117.636 39.9173 117.636 39.532C117.636 39.2827 117.794 38.75 118.112 37.934C118.452 37.0953 118.69 36.4607 118.826 36.03C118.984 35.5767 119.109 35.1007 119.2 34.602C119.313 34.1033 119.404 33.5707 119.472 33.004C119.54 32.4147 119.585 31.9613 119.608 31.644C119.653 31.3267 119.698 30.828 119.744 30.148C119.948 27.2013 120.118 25.5693 120.254 25.252C120.412 24.9347 120.582 24.776 120.764 24.776C121.625 24.776 122.452 25.1387 123.246 25.864C124.039 26.5667 124.436 27.2127 124.436 27.802C124.436 29.2073 124.073 31.2247 123.348 33.854C124.821 31.27 126.158 29.162 127.36 27.53C128.584 25.8753 129.615 25.048 130.454 25.048ZM149.45 25.898C149.586 25.3313 149.96 25.048 150.572 25.048C151.184 25.048 151.807 25.4333 152.442 26.204C153.099 26.9747 153.428 27.8473 153.428 28.822C153.428 29.3887 153.224 30.284 152.816 31.508C152.408 32.732 152.113 33.6047 151.932 34.126C151.773 34.6473 151.535 35.3613 151.218 36.268C150.901 37.152 150.606 37.9793 150.334 38.75C150.085 39.498 149.733 40.5067 149.28 41.776C148.849 43.0453 148.453 44.224 148.09 45.312C147.387 47.352 146.526 48.9273 145.506 50.038C144.509 51.1487 143.205 51.704 141.596 51.704C139.987 51.704 138.547 51.2733 137.278 50.412C136.009 49.5733 135.374 48.7233 135.374 47.862C135.374 47.3407 135.601 46.7627 136.054 46.128C136.53 45.4933 136.927 45.176 137.244 45.176C137.584 45.176 138.015 45.4367 138.536 45.958C139.08 46.502 139.635 47.0347 140.202 47.556C140.769 48.1 141.267 48.372 141.698 48.372C141.993 48.372 142.231 48.236 142.412 47.964C142.616 47.692 142.775 47.4427 142.888 47.216C143.024 47.012 143.16 46.7173 143.296 46.332C143.432 45.9693 143.557 45.6293 143.67 45.312C143.783 44.9947 143.919 44.5753 144.078 44.054C144.237 43.5327 144.373 43.068 144.486 42.66C144.871 41.436 145.2 40.348 145.472 39.396C144.724 40.3707 143.953 41.1527 143.16 41.742C142.367 42.3087 141.63 42.592 140.95 42.592C140.293 42.592 139.465 42.0933 138.468 41.096C137.493 40.076 137.006 38.9653 137.006 37.764C137.006 36.54 137.267 34.908 137.788 32.868C138.332 30.828 139.001 29.0147 139.794 27.428C140.587 25.8413 141.29 25.048 141.902 25.048C142.605 25.048 143.262 25.354 143.874 25.966C144.509 26.5553 144.826 27.1333 144.826 27.7C144.826 28.244 144.543 29.128 143.976 30.352C143.432 31.576 142.877 32.9133 142.31 34.364C141.743 35.8147 141.46 37.05 141.46 38.07C141.46 38.206 141.517 38.274 141.63 38.274C141.925 38.274 142.548 37.73 143.5 36.642C144.452 35.5313 145.517 33.9673 146.696 31.95C147.897 29.91 148.815 27.8927 149.45 25.898ZM159.226 39.124C160.45 38.58 161.515 37.4807 162.422 35.826C163.329 34.1713 163.782 32.6187 163.782 31.168C163.782 29.7173 163.578 28.72 163.17 28.176C162.195 28.7427 161.221 29.9327 160.246 31.746C159.294 33.5593 158.818 35.1573 158.818 36.54C158.818 37.9 158.954 38.7613 159.226 39.124ZM154.262 36.88C154.262 34.0467 155.135 31.3607 156.88 28.822C158.648 26.2833 160.393 25.014 162.116 25.014C163.839 25.014 165.289 25.626 166.468 26.85C167.647 28.0513 168.236 29.5133 168.236 31.236C168.236 32.936 167.828 34.67 167.012 36.438C166.196 38.206 165.051 39.6793 163.578 40.858C162.105 42.014 160.529 42.592 158.852 42.592C157.605 42.592 156.529 42.0367 155.622 40.926C154.715 39.8153 154.262 38.4667 154.262 36.88ZM171.808 30.794L171.604 26.952C171.604 25.6827 172.001 25.048 172.794 25.048C173.247 25.048 173.689 25.218 174.12 25.558C174.573 25.898 174.913 26.4307 175.14 27.156C175.911 26.476 176.749 25.932 177.656 25.524C178.585 25.0933 179.401 24.878 180.104 24.878C181.759 24.878 182.586 25.2747 182.586 26.068C182.586 26.476 182.507 26.782 182.348 26.986C182.212 27.1673 182.099 27.3033 182.008 27.394C181.94 27.4847 181.804 27.6093 181.6 27.768C181.419 27.904 181.283 28.006 181.192 28.074C180.671 28.414 180.297 28.652 180.07 28.788C179.05 29.4227 178.177 30.1933 177.452 31.1C176.727 31.984 176.183 33.2193 175.82 34.806C175.208 37.4127 174.607 39.362 174.018 40.654C173.451 41.9233 172.805 42.558 172.08 42.558C171.377 42.558 170.845 42.218 170.482 41.538C170.142 40.858 169.972 40.2233 169.972 39.634C169.972 39.022 170.187 38.1153 170.618 36.914C171.071 35.7127 171.377 34.6813 171.536 33.82C171.717 32.936 171.808 31.9273 171.808 30.794ZM196.706 32.936C197.114 33.2987 197.318 33.6273 197.318 33.922C197.318 34.2167 197.182 34.8287 196.91 35.758C196.638 36.6873 196.457 37.4127 196.366 37.934C196.276 38.4327 196.196 38.8293 196.128 39.124C196.083 39.4187 196.049 39.6567 196.026 39.838C196.004 39.9967 195.958 40.2007 195.89 40.45C195.845 40.6993 195.8 40.9033 195.754 41.062C195.732 41.198 195.686 41.368 195.618 41.572C195.573 41.7533 195.516 41.9007 195.448 42.014C195.38 42.1047 195.301 42.2067 195.21 42.32C195.074 42.5013 194.848 42.592 194.53 42.592C194.213 42.592 193.816 42.2747 193.34 41.64C192.887 41.0053 192.547 40.2347 192.32 39.328C190.19 41.504 188.399 42.592 186.948 42.592C185.974 42.592 184.92 42.0593 183.786 40.994C182.653 39.906 182.086 38.8293 182.086 37.764C182.086 36.676 182.574 35.1347 183.548 33.14C184.523 31.1453 185.849 29.298 187.526 27.598C189.226 25.898 190.904 25.048 192.558 25.048C193.51 25.048 194.61 25.6033 195.856 26.714C197.103 27.8247 197.726 28.8447 197.726 29.774C197.726 30.6807 197.386 31.7347 196.706 32.936ZM186.812 38.308C187.719 38.308 188.92 37.696 190.416 36.472C191.935 35.2253 192.876 33.6613 193.238 31.78C193.261 31.508 193.454 31.3493 193.816 31.304C193.748 30.012 193.533 29.366 193.17 29.366C192.264 29.366 191.244 29.9553 190.11 31.134C189 32.3127 188.082 33.5707 187.356 34.908C186.654 36.2453 186.302 37.2313 186.302 37.866C186.302 38.0473 186.325 38.172 186.37 38.24C186.438 38.2853 186.586 38.308 186.812 38.308ZM215.704 35.52C215.704 37.4467 214.786 39.1013 212.95 40.484C211.114 41.8667 209.018 42.558 206.66 42.558C204.303 42.558 202.399 41.98 200.948 40.824C199.52 39.6453 198.806 38.4327 198.806 37.186C198.806 35.9393 199.158 35.316 199.86 35.316C200.404 35.316 200.971 35.588 201.56 36.132C202.15 36.676 202.807 37.22 203.532 37.764C204.28 38.308 205.119 38.58 206.048 38.58C206.978 38.58 208.032 38.1947 209.21 37.424C210.389 36.6533 210.978 36.0073 210.978 35.486C210.978 34.9647 210.332 34.092 209.04 32.868C207.771 31.644 206.49 30.386 205.198 29.094C203.929 27.7793 203.294 26.7707 203.294 26.068C203.294 25.3427 203.419 24.5607 203.668 23.722C203.94 22.8833 204.269 22.3053 204.654 21.988C205.878 20.7867 207.454 19.7553 209.38 18.894C211.33 18.01 213.041 17.568 214.514 17.568C215.376 17.568 216.09 17.942 216.656 18.69C217.223 19.4153 217.506 20.1747 217.506 20.968C217.506 21.2853 217.246 21.546 216.724 21.75C216.226 21.9313 215.489 22.124 214.514 22.328C213.562 22.532 212.588 22.8267 211.59 23.212C209.278 24.0733 208.122 24.7987 208.122 25.388C208.122 25.66 208.519 26.1587 209.312 26.884C210.106 27.5867 210.967 28.3347 211.896 29.128C212.848 29.8987 213.721 30.8847 214.514 32.086C215.308 33.2647 215.704 34.4093 215.704 35.52ZM221.51 42.592C220.989 42.592 220.331 42.1727 219.538 41.334C218.767 40.4953 218.382 39.8267 218.382 39.328C218.382 39.192 218.756 37.8433 219.504 35.282C220.275 32.7207 221.034 29.638 221.782 26.034C222.553 22.43 222.938 19.2793 222.938 16.582C222.938 15.8793 223.255 15.528 223.89 15.528C224.434 15.528 225.148 16.0267 226.032 17.024C226.939 17.9987 227.392 18.9167 227.392 19.778C227.392 21.0247 226.939 23.382 226.032 26.85C225.148 30.318 224.264 33.0493 223.38 35.044C223.675 34.6587 224.071 34.1487 224.57 33.514C225.091 32.8567 225.511 32.324 225.828 31.916C226.145 31.508 226.531 31.0093 226.984 30.42C227.46 29.8307 227.857 29.3547 228.174 28.992C228.491 28.6067 228.843 28.1873 229.228 27.734C229.613 27.258 229.942 26.884 230.214 26.612C230.509 26.3173 230.803 26.0453 231.098 25.796C231.642 25.2973 232.061 25.048 232.356 25.048C232.923 25.048 233.546 25.4333 234.226 26.204C234.906 26.952 235.246 27.6093 235.246 28.176C235.246 28.4027 234.759 28.924 233.784 29.74C232.832 30.556 231.869 31.4627 230.894 32.46C229.942 33.4573 229.466 34.3527 229.466 35.146C229.466 35.9167 229.693 36.676 230.146 37.424C230.622 38.1493 231.132 38.7047 231.676 39.09C232.22 39.4753 232.719 39.872 233.172 40.28C233.648 40.6653 233.886 40.994 233.886 41.266C233.886 42.15 233.285 42.592 232.084 42.592C230.656 42.592 228.763 41.3907 226.406 38.988L225.59 38.172C223.55 41.1187 222.19 42.592 221.51 42.592ZM239.91 15.528C240.454 15.528 241.156 16.0267 242.018 17.024C242.879 18.0213 243.31 18.9733 243.31 19.88C243.31 20.7867 243.174 22.4073 242.902 24.742C242.63 27.054 242.346 28.9013 242.052 30.284C240.17 38.4893 238.856 42.592 238.108 42.592C237.609 42.592 236.986 42.1953 236.238 41.402C235.512 40.586 235.15 39.9173 235.15 39.396C235.15 39.3507 235.456 38.172 236.068 35.86C236.68 33.548 237.292 30.5787 237.904 26.952C238.538 23.3027 238.856 19.8233 238.856 16.514C238.856 15.8567 239.207 15.528 239.91 15.528ZM248.941 15.528C249.485 15.528 250.188 16.0267 251.049 17.024C251.91 18.0213 252.341 18.9733 252.341 19.88C252.341 20.7867 252.205 22.4073 251.933 24.742C251.661 27.054 251.378 28.9013 251.083 30.284C249.202 38.4893 247.887 42.592 247.139 42.592C246.64 42.592 246.017 42.1953 245.269 41.402C244.544 40.586 244.181 39.9173 244.181 39.396C244.181 39.3507 244.487 38.172 245.099 35.86C245.711 33.548 246.323 30.5787 246.935 26.952C247.57 23.3027 247.887 19.8233 247.887 16.514C247.887 15.8567 248.238 15.528 248.941 15.528ZM264.024 25.082C264.885 25.082 265.735 25.592 266.574 26.612C267.413 27.632 267.832 28.55 267.832 29.366C267.832 29.91 267.594 30.182 267.118 30.182C266.846 30.182 266.449 30.08 265.928 29.876C265.407 29.6493 264.874 29.536 264.33 29.536C263.809 29.536 263.027 29.7173 261.984 30.08C260.964 30.4427 260.454 30.9187 260.454 31.508C260.454 31.7347 260.76 32.0633 261.372 32.494C261.984 32.9247 262.653 33.3667 263.378 33.82C264.103 34.2733 264.772 34.908 265.384 35.724C265.996 36.5173 266.302 37.39 266.302 38.342C266.302 39.2713 265.611 40.212 264.228 41.164C262.868 42.116 261.259 42.592 259.4 42.592C257.564 42.592 255.989 42.1727 254.674 41.334C253.359 40.4953 252.702 39.634 252.702 38.75C252.702 37.866 253.065 37.424 253.79 37.424C254.085 37.424 254.436 37.5373 254.844 37.764C255.977 38.4213 257.383 38.75 259.06 38.75C260.76 38.75 261.61 38.5233 261.61 38.07C261.61 37.6167 261.281 37.118 260.624 36.574C259.989 36.0073 259.287 35.486 258.516 35.01C257.768 34.534 257.065 33.956 256.408 33.276C255.773 32.5733 255.456 31.8933 255.456 31.236C255.456 30.012 256.567 28.686 258.788 27.258C261.009 25.8073 262.755 25.082 264.024 25.082Z" fill="white"/>
</svg>
